# xmcd CD database file
#
# Track frame offsets:
#	150
#	19047
#	36487
#	57093
#	92041
#	115743
#	131536
#	149754
#	166623
#	184462
#	197778
#	209153
#	223983
#	239924
#	267040
#	284063
#	307012
#	322913
#
# Disc length: 4552 seconds
#
# Revision: 0
# Processed by: cddbd v1.5.2PL0 Copyright (c) Steve Scherf et al.
# Submitted via: Feurio! 1.68 - http://www.feurio.com
#
DISCID=2611c612
DTITLE=BBC Blues Sessions   Volume 5 - Angela Brown and The Mighty 45's, 
DTITLE=Southside Johnny and The Asbury Jukes, Eric Bibb,
DYEAR=1900
DGENRE=
TTITLE0=Angela Brown and The Mighty 45's - People Will Be People (Broadcast 2nd 
TTITLE0=November 2006)
TTITLE1=Angela Brown and The Mighty 45's - Either Way We Lose (Broadcast 2nd 
TTITLE1=November 2006)
TTITLE2=Angela Brown and The Mighty 45's - You Didn't Want What You Had 
TTITLE2=(Broadcast 2nd November 2006)
TTITLE3=Southside Johnny and The Asbury Jukes - The Fever (Coal Exchange Cardiff 
TTITLE3=14th Oct 2001)
TTITLE4=Southside Johnny and The Asbury Jukes - Tired Skin (Coal Exchange 
TTITLE4=Cardiff 14th Oct 2001)
TTITLE5=Southside Johnny and The Asbury Jukes - I Don't Wanna Go Home (Coal 
TTITLE5=Exchange Cardiff 14th Oct 2001)
TTITLE6=Southside Johnny and The Asbury Jukes - Key To The Highway (Broadcast 
TTITLE6=9th November 2006)
TTITLE7=Southside Johnny and The Asbury Jukes - Into The Harbour (Broadcast 9th 
TTITLE7=November 2006)
TTITLE8=Southside Johnny and The Asbury Jukes - C'Mon Caroline (Broadcast 9th 
TTITLE8=November 2006)
TTITLE9=Southside Johnny and The Asbury Jukes - Nothing But A Heartache 
TTITLE9=(Broadcast 9th November 2006)
TTITLE10=Eric Bibb - Stagger Lee (Broadcast 16th November 2006)
TTITLE11=Eric Bibb - Got To Do Better (Broadcast 16th November 2006)
TTITLE12=Eric Bibb - Destiny Blues (Broadcast 16th November 2006)
TTITLE13=Eric Bibb with Jools Holland and The Rhythm Section - Going Down Slow 
TTITLE13=(Jools Holland's Radio Show Broadcast 27th November 2006)
TTITLE14=Eric Bibb - In My Father's House (Jools Holland's Later Broadcast 8th 
TTITLE14=December 2006)
TTITLE15=Eric Bibb - The Needed Time (Cambridge Folk Festival 2002)
TTITLE16=Eric Bibb - Shingle By Shingle (Cambridge Folk Festival 2002)
TTITLE17=Eric Bibb - Good Stuff (Cambridge Folk Festival 2002)
EXTD=
EXTT0=
EXTT1=
EXTT2=
EXTT3=
EXTT4=
EXTT5=
EXTT6=
EXTT7=
EXTT8=
EXTT9=
EXTT10=
EXTT11=
EXTT12=
EXTT13=
EXTT14=
EXTT15=
EXTT16=
EXTT17=
PLAYORDER=
